Coordinates
version=1
nRows=16
nColumns=36
inDegrees=yes

Units are S.I. units (second, meters, Newtons, ...)
If the header above contains a line with 'inDegrees', this indicates whether rotational values are in degrees (yes) or radians (no).

endheader
time	pelvis_tilt	pelvis_list	pelvis_rotation	pelvis_tx	pelvis_ty	pelvis_tz	hip_flexion_r	hip_adduction_r	hip_rotation_r	knee_angle_r	knee_angle_r_beta	ankle_angle_r	subtalar_angle_r	mtp_angle_r	hip_flexion_l	hip_adduction_l	hip_rotation_l	knee_angle_l	knee_angle_l_beta	ankle_angle_l	subtalar_angle_l	mtp_angle_l	lumbar_extension	lumbar_bending	lumbar_rotation	arm_flex_r	arm_add_r	arm_rot_r	elbow_flex_r	pro_sup_r	arm_flex_l	arm_add_l	arm_rot_l	elbow_flex_l	pro_sup_l
      0.00000000	     -8.73166499	      0.54300434	      9.31437588	     -0.02100093	      0.86417983	     -0.21104521	     37.33377511	     -1.31557756	     -2.33034359	     15.26014665	      0.26633980	      1.58751681	     -7.51207672	     -5.18431588	     -9.81724349	      2.75315173	      7.27179790	     14.16028023	      0.24714351	     16.18436789	      0.30267648	     -5.18431588	     -5.16900090	     -4.07394328	    -11.76021547	     -5.22755870	    -15.73315621	     -1.82469357	     35.97648770	    101.65048293	     -3.86536904	    -13.67103478	     -1.30703485	     39.69047991	     97.24610563
      0.01000000	     -8.71948309	      0.09885902	      9.31989412	     -0.00785324	      0.86472961	     -0.21042467	     37.04642238	     -0.82410349	     -3.02841710	     16.04613030	      0.28005781	      0.58094727	     -7.60311968	     -5.22012375	     -9.50611795	      1.96660218	      6.70618957	     16.00608679	      0.27935891	     14.65735999	      0.38729076	     -5.22012375	     -4.81349966	     -3.02683031	    -11.50976953	     -5.11178568	    -15.87408539	     -1.73449275	     35.48688003	    101.91120299	     -4.32031545	    -13.56590154	     -1.09695571	     38.92861156	     97.37060011
      0.02000000	     -8.82316578	     -0.37243754	      9.28289614	      0.00530986	      0.86514051	     -0.20981571	     36.94647416	     -0.31659707	     -3.59814874	     16.97879425	      0.29633586	     -0.23539379	     -7.55730160	     -5.25349774	     -9.04668994	      1.16955185	      6.19112806	     17.85249422	      0.31158480	     13.25473098	      0.74432885	     -5.25349774	     -4.29695381	     -1.94828349	    -11.24514554	     -5.11535512	    -16.05237062	     -1.74900068	     35.25050520	    102.13940391	     -4.88036309	    -13.42681192	     -0.86706598	     38.33502402	     97.51041559
      0.03000000	     -8.87503710	     -0.91847999	      9.11460258	      0.01844892	      0.86583020	     -0.20896635	     36.81313052	      0.34193030	     -4.06047056	     17.97598851	      0.31374019	     -0.73997492	     -7.35864534	     -5.44081547	     -8.42024929	      0.21389054	      5.20766704	     20.03702015	      0.34971197	     12.25015063	      2.17490847	     -5.44081547	     -3.84333242	     -0.75962859	    -10.70266308	     -5.22610752	    -16.21770784	     -2.14399088	     35.16946708	    103.24422565	     -5.25006667	    -13.35856285	     -0.10524937	     37.43080627	     98.40364624
      0.04000000	     -8.75353024	     -1.44470045	      8.96032324	      0.03134891	      0.86709876	     -0.20826922	     36.44138324	      1.03474500	     -4.09924343	     18.97674686	      0.33120671	     -0.87185564	     -7.33825512	     -5.45576563	     -7.87504037	     -0.60440544	      4.98914986	     22.33993460	      0.38990541	     10.54745126	      2.22571416	     -5.45576563	     -3.69339744	      0.44051074	    -10.29963527	     -5.10897914	    -16.44766960	     -2.25923772	     35.15212973	    103.30117395	     -5.77584253	    -13.13523825	     -0.09673755	     37.18285563	     98.44480286
      0.05000000	     -8.81981064	     -2.05198946	      8.72103200	      0.04412910	      0.86836995	     -0.20749272	     36.25952248	      1.77574785	     -4.34512193	     19.90549486	      0.34741642	     -0.85077632	     -7.29964123	     -5.47883051	     -6.64513608	     -1.59141593	      3.88086692	     25.37427945	      0.44286472	      8.27108074	      2.27245776	     -5.47883051	     -3.29399146	      1.73352281	     -9.89364382	     -5.06377744	    -16.66131512	     -2.42108431	     35.25827996	    103.39616245	     -6.36906514	    -12.87495752	     -0.10445402	     36.82787012	     98.52175668
      0.06000000	     -8.84376009	     -2.67426861	      8.36394809	      0.05674424	      0.86988258	     -0.20663648	     36.01942191	      2.62304144	     -4.27094563	     20.88974858	      0.36459489	     -0.63510977	     -7.05409246	     -5.52403952	     -5.31778087	     -2.59565298	      2.90277709	     28.61315787	      0.49939381	      6.06613386	      2.59162266	     -5.52403952	     -2.97341109	      3.05411102	     -9.31031655	     -5.03543660	    -16.94611304	     -2.72724062	     35.56118299	    103.58634594	     -6.88854559	    -12.56230593	     -0.14556563	     36.53447020	     98.72391091
      0.07000000	     -8.70420453	     -3.30524243	      8.03748126	      0.06907045	      0.87182363	     -0.20586569	     35.40180474	      3.53311141	     -4.07849749	     21.49146999	      0.37509691	     -0.11803262	     -6.93889292	     -5.54931298	     -3.93086457	     -3.63706726	      2.05084742	     32.17955508	      0.56163919	      3.76733123	      2.51355652	     -5.54931298	     -2.90535343	      4.41655675	     -8.75999234	     -4.88563215	    -17.24494310	     -2.91970476	     35.83767296	    103.69609424	     -7.38784743	    -12.28068009	     -0.16472071	     36.45848931	     98.85330555
      0.08000000	     -8.59882346	     -3.88191163	      7.64617738	      0.08110335	      0.87379208	     -0.20506285	     34.71642904	      4.43238865	     -3.80942877	     21.90666260	      0.38234339	      0.41830168	     -6.74260200	     -5.57302932	     -2.33961689	     -4.61108658	      1.25269176	     35.96573272	      0.62772045	      1.46965173	      2.26114910	     -5.57302932	     -2.85911086	      5.70949713	     -8.15497421	     -4.71772878	    -17.57254563	     -3.10035099	     36.22014757	    103.81021430	     -7.88206195	    -12.00308692	     -0.22700628	     36.48289958	     98.98674154
      0.09000000	     -8.53326605	     -4.40058670	      7.24939406	      0.09281859	      0.87572679	     -0.20431327	     33.95289985	      5.28682603	     -3.51191059	     22.08642555	      0.38548085	      0.98757681	     -6.49468716	     -5.59909168	     -0.57752807	     -5.50113288	      0.58766676	     39.86171938	      0.69571825	     -0.65557599	      1.69777908	     -5.59909168	     -2.79846943	      6.91683378	     -7.55021191	     -4.55085449	    -17.90575686	     -3.29689544	     36.70482416	    103.94427458	     -8.36731803	    -11.75909697	     -0.31800808	     36.62281932	     99.14920865
      0.10000000	     -8.47792294	     -4.81944272	      6.87103101	      0.10419526	      0.87766289	     -0.20356370	     33.06249891	      6.04936413	     -3.21572546	     22.00364184	      0.38403600	      1.58531732	     -6.23915774	     -5.62425946	      1.29962582	     -6.25400163	      0.09623373	     43.80405820	      0.76452504	     -2.35509441	      0.83921062	     -5.62425946	     -2.76850277	      7.98264715	     -6.94898264	     -4.35580461	    -18.22467650	     -3.48062710	     37.18989634	    104.07785697	     -8.81976507	    -11.58518920	     -0.38144067	     36.85363318	     99.32340932
      0.11000000	     -8.42605408	     -5.13217786	      6.52902710	      0.11523335	      0.87961993	     -0.20292681	     32.06112767	      6.69318677	     -2.93206757	     21.69935949	      0.37872527	      2.19719252	     -5.99177220	     -5.64380025	      3.24055880	     -6.83986074	     -0.23191422	     47.66249634	      0.83186749	     -3.42194567	     -0.15750418	     -5.64380025	     -2.78860155	      8.91305455	     -6.35005587	     -4.08449730	    -18.53972193	     -3.62017468	     37.57728148	    104.18212227	     -9.18601174	    -11.44862663	     -0.35522823	     37.13876126	     99.47998155
      0.12000000	     -8.38708404	     -5.32044839	      6.26073653	      0.12593989	      0.88158671	     -0.20230447	     31.00011259	      7.18299158	     -2.68335870	     21.26532512	      0.37114994	      2.76084669	     -5.72865749	     -5.66116510	      5.26928244	     -7.24578000	     -0.39088430	     51.40658844	      0.89721423	     -3.85745726	     -1.32588462	     -5.66116510	     -2.82068285	      9.64474888	     -5.79280609	     -3.78754193	    -18.79537738	     -3.72112237	     37.93097935	    104.27434503	     -9.46440849	    -11.44099732	     -0.25872003	     37.46487703	     99.63646626
      0.13000000	     -8.47084959	     -5.41608327	      6.07834383	      0.13639621	      0.88339170	     -0.20178083	     29.99450528	      7.49925504	     -2.60081660	     20.64499912	      0.36032321	      3.33918915	     -5.45586290	     -5.68449675	      7.50022788	     -7.50487384	     -0.49384069	     54.97741414	      0.95953689	     -3.68475072	     -2.81959356	     -5.68449675	     -2.70481230	     10.22962755	     -5.33609027	     -3.52545667	    -19.02835725	     -3.83267429	     38.33198881	    104.38753437	     -9.74634017	    -11.51625983	     -0.00846869	     37.87494082	     99.85780907
      0.14000000	     -8.48139652	     -5.40687968	      5.98785252	      0.14662897	      0.88537396	     -0.20135158	     28.88418428	      7.67676940	     -2.55005293	     19.98755005	      0.34884856	      3.90136481	     -5.16028375	     -5.70636611	      9.67127198	     -7.59358755	     -0.45236270	     58.25962753	      1.01682232	     -3.04914135	     -4.19153734	     -5.70636611	     -2.69701837	     10.66944827	     -4.88124371	     -3.19946145	    -19.21981385	     -3.92513224	     38.57074043	    104.47508169	     -9.86061874	    -11.67294697	      0.34000650	     38.25453710	    100.07377922
      0.15000000	     -8.46752897	     -5.33625071	      5.99021261	      0.15665708	      0.88739638	     -0.20100859	     27.72892657	      7.74946269	     -2.53480448	     19.28378873	      0.33656561	      4.44903330	     -4.84377273	     -5.72520122	     11.84109541	     -7.55657166	     -0.30786515	     61.23905946	      1.06882322	     -2.13517234	     -5.45755033	     -5.72520122	     -2.72719817	     11.00470977	     -4.46324275	     -2.84090100	    -19.38745965	     -3.99717268	     38.70482660	    104.53585792	     -9.87010304	    -11.87831706	      0.75303095	     38.61810998	    100.27164047
